<svg xmlns="http://www.w3.org/2000/svg" viewBox="0 0 512 512">
  <defs>
    <linearGradient id="bg" x1="0" y1="0" x2="0" y2="1">
      <stop offset="0%" stop-color="#1a1a2e"/>
      <stop offset="100%" stop-color="#16213e"/>
    </linearGradient>
    <linearGradient id="sun" x1="0" y1="0" x2="1" y2="1">
      <stop offset="0%" stop-color="#f9a825"/>
      <stop offset="100%" stop-color="#ff7043"/>
    </linearGradient>
    <linearGradient id="mountain1" x1="0" y1="0" x2="0" y2="1">
      <stop offset="0%" stop-color="#2d2d44"/>
      <stop offset="100%" stop-color="#1e1e32"/>
    </linearGradient>
    <linearGradient id="mountain2" x1="0" y1="0" x2="0" y2="1">
      <stop offset="0%" stop-color="#3a3a55"/>
      <stop offset="100%" stop-color="#252540"/>
    </linearGradient>
    <linearGradient id="mountain3" x1="0" y1="0" x2="0" y2="1">
      <stop offset="0%" stop-color="#454568"/>
      <stop offset="100%" stop-color="#2e2e4a"/>
    </linearGradient>
    <linearGradient id="glow" cx="0.5" cy="0.5" r="0.5" fx="0.5" fy="0.5" gradientUnits="objectBoundingBox">
      <stop offset="0%" stop-color="#f9a825" stop-opacity="0.3"/>
      <stop offset="100%" stop-color="#f9a825" stop-opacity="0"/>
    </linearGradient>
  </defs>
  <rect width="512" height="512" fill="url(#bg)" rx="96"/>
  <circle cx="256" cy="200" r="100" fill="url(#glow)"/>
  <circle cx="256" cy="200" r="52" fill="url(#sun)"/>
  <polygon points="0,340 80,240 160,300 240,210 320,280 400,190 512,280 512,512 0,512" fill="url(#mountain3)"/>
  <polygon points="0,380 100,290 200,350 300,260 400,330 512,260 512,512 0,512" fill="url(#mountain2)"/>
  <polygon points="0,420 120,340 220,390 320,320 420,370 512,310 512,512 0,512" fill="url(#mountain1)"/>
  <circle cx="200" cy="340" r="2" fill="#fff" opacity="0.6"/>
  <circle cx="350" cy="300" r="1.5" fill="#fff" opacity="0.4"/>
  <circle cx="150" cy="280" r="1" fill="#fff" opacity="0.5"/>
  <circle cx="380" cy="270" r="1.5" fill="#fff" opacity="0.3"/>
  <circle cx="120" cy="350" r="1" fill="#fff" opacity="0.4"/>
  <circle cx="420" cy="340" r="1" fill="#fff" opacity="0.5"/>
</svg>
